<?xml version="1.0" standalone="no"?>
<svg xmlns="http://www.w3.org/2000/svg" xmlns:xlink="http://www.w3.org/1999/xlink" width="810pt" height="342pt" viewBox="0.00 0.00 810.48 342.27">
<g id="graph0" class="graph" transform="translate(6.7205047607421875,336.9097442626953) scale(1)" data-name="">
<polygon fill="white" stroke="transparent" points="-4,4 -4,-338.27 806.48,-338.27 806.48,4 -4,4"/>
<!-- 9 -->
<g id="node1" class="node" pointer-events="visible" data-name="9">

<ellipse fill="none" stroke="black" cx="87.48" cy="-305.99" rx="37.45" ry="28.07"/>
<text text-anchor="start" x="71.23" y="-301.79" font-family="Times,serif" font-size="14.00"> </text>
<polygon fill="#00ff00" stroke="transparent" points="76.48,-289.99 76.48,-321.99 92.48,-321.99 92.48,-289.99 76.48,-289.99"/>
<text text-anchor="start" x="78.48" y="-299.39" font-family="Times,serif" font-weight="bold" font-size="24.00">x</text>
<text text-anchor="start" x="94.48" y="-300.99" font-family="Times,serif" font-weight="bold" baseline-shift="super" font-size="20" fill="red">1</text>
</g>
<!-- 24 -->
<g id="node6" class="node" pointer-events="visible" data-name="24">

<ellipse fill="none" stroke="black" cx="37.48" cy="-213.42" rx="37.45" ry="28.07"/>
<text text-anchor="start" x="21.23" y="-209.22" font-family="Times,serif" font-size="14.00"> </text>
<polygon fill="#00ff00" stroke="transparent" points="26.48,-197.42 26.48,-229.42 42.48,-229.42 42.48,-197.42 26.48,-197.42"/>
<text text-anchor="start" x="28.48" y="-206.82" font-family="Times,serif" font-weight="bold" font-size="24.00">x</text>
<text text-anchor="start" x="44.48" y="-208.42" font-family="Times,serif" font-weight="bold" baseline-shift="super" font-size="20" fill="red">6</text>
</g>
<!-- 9&#45;&gt;24 -->
<g id="edge3" class="edge" data-name="9-&gt;24">

<path fill="none" stroke="black" d="M73.28,-279.28C68.07,-269.83 62.07,-258.97 56.5,-248.88"/>
<polygon fill="black" stroke="black" points="59.43,-246.95 51.53,-239.88 53.3,-250.33 59.43,-246.95"/>
</g>
<!-- 36 -->
<g id="node10" class="node" pointer-events="visible" data-name="36">

<ellipse fill="none" stroke="black" cx="137.48" cy="-213.42" rx="44.6" ry="28.07"/>
<text text-anchor="start" x="116.23" y="-209.22" font-family="Times,serif" font-size="14.00"> </text>
<polygon fill="#00ff00" stroke="transparent" points="121.48,-197.42 121.48,-229.42 137.48,-229.42 137.48,-197.42 121.48,-197.42"/>
<text text-anchor="start" x="123.48" y="-206.82" font-family="Times,serif" font-weight="bold" font-size="24.00">x</text>
<text text-anchor="start" x="139.48" y="-208.42" font-family="Times,serif" font-weight="bold" baseline-shift="super" font-size="20" fill="red">10</text>
</g>
<!-- 9&#45;&gt;36 -->
<g id="edge7" class="edge" data-name="9-&gt;36">

<path fill="none" stroke="black" d="M101.67,-279.28C106.8,-269.99 112.68,-259.34 118.17,-249.39"/>
<polygon fill="black" stroke="black" points="121.3,-250.96 123.07,-240.51 115.18,-247.57 121.3,-250.96"/>
</g>
<!-- 12 -->
<g id="node2" class="node" pointer-events="visible" data-name="12">

<ellipse fill="none" stroke="black" cx="427.48" cy="-305.99" rx="37.45" ry="28.07"/>
<text text-anchor="start" x="411.23" y="-301.79" font-family="Times,serif" font-size="14.00"> </text>
<polygon fill="#00ff00" stroke="transparent" points="416.48,-289.99 416.48,-321.99 432.48,-321.99 432.48,-289.99 416.48,-289.99"/>
<text text-anchor="start" x="418.48" y="-299.39" font-family="Times,serif" font-weight="bold" font-size="24.00">y</text>
<text text-anchor="start" x="434.48" y="-300.99" font-family="Times,serif" font-weight="bold" baseline-shift="super" font-size="20" fill="red">2</text>
</g>
<!-- 22 -->
<g id="node5" class="node" pointer-events="visible" data-name="22">

<ellipse fill="none" stroke="black" cx="381.48" cy="-213.42" rx="37.45" ry="28.07"/>
<text text-anchor="start" x="365.23" y="-209.22" font-family="Times,serif" font-size="14.00"> </text>
<polygon fill="#00ff00" stroke="transparent" points="370.48,-197.42 370.48,-229.42 386.48,-229.42 386.48,-197.42 370.48,-197.42"/>
<text text-anchor="start" x="372.48" y="-206.82" font-family="Times,serif" font-weight="bold" font-size="24.00">y</text>
<text text-anchor="start" x="388.48" y="-208.42" font-family="Times,serif" font-weight="bold" baseline-shift="super" font-size="20" fill="red">5</text>
</g>
<!-- 12&#45;&gt;22 -->
<g id="edge2" class="edge" data-name="12-&gt;22">

<path fill="none" stroke="black" d="M414.42,-279.28C409.66,-269.91 404.2,-259.16 399.11,-249.13"/>
<polygon fill="black" stroke="black" points="402.22,-247.53 394.57,-240.2 395.98,-250.7 402.22,-247.53"/>
</g>
<!-- 29 -->
<g id="node8" class="node" pointer-events="visible" data-name="29">

<ellipse fill="none" stroke="black" cx="474.48" cy="-213.42" rx="37.45" ry="28.07"/>
<text text-anchor="start" x="458.23" y="-209.22" font-family="Times,serif" font-size="14.00"> </text>
<polygon fill="#00ff00" stroke="transparent" points="463.48,-197.42 463.48,-229.42 479.48,-229.42 479.48,-197.42 463.48,-197.42"/>
<text text-anchor="start" x="465.48" y="-206.82" font-family="Times,serif" font-weight="bold" font-size="24.00">y</text>
<text text-anchor="start" x="481.48" y="-208.42" font-family="Times,serif" font-weight="bold" baseline-shift="super" font-size="20" fill="red">8</text>
</g>
<!-- 12&#45;&gt;29 -->
<g id="edge5" class="edge" data-name="12-&gt;29">

<path fill="none" stroke="black" d="M440.82,-279.28C445.68,-269.91 451.26,-259.16 456.46,-249.13"/>
<polygon fill="black" stroke="black" points="459.6,-250.68 461.1,-240.2 453.39,-247.46 459.6,-250.68"/>
</g>
<!-- 16 -->
<g id="node3" class="node" pointer-events="visible" data-name="16">

<ellipse fill="none" stroke="black" cx="295.48" cy="-120.85" rx="70.01" ry="28.07"/>
<text text-anchor="start" x="256.23" y="-116.65" font-family="Times,serif" font-size="14.00"> </text>
<polygon fill="#00ff00" stroke="transparent" points="261.48,-104.85 261.48,-136.85 323.48,-136.85 323.48,-104.85 261.48,-104.85"/>
<text text-anchor="start" x="263.15" y="-114.25" font-family="Times,serif" font-weight="bold" font-size="24.00">result</text>
<text text-anchor="start" x="325.48" y="-115.85" font-family="Times,serif" font-weight="bold" baseline-shift="super" font-size="20" fill="red">3</text>
</g>
<!-- 54 -->
<g id="node14" class="node" pointer-events="visible" data-name="54">

<ellipse fill="none" stroke="black" cx="295.48" cy="-28.28" rx="77.15" ry="28.07"/>
<text text-anchor="start" x="251.23" y="-24.08" font-family="Times,serif" font-size="14.00"> </text>
<polygon fill="#00ff00" stroke="transparent" points="256.48,-12.28 256.48,-44.28 318.48,-44.28 318.48,-12.28 256.48,-12.28"/>
<text text-anchor="start" x="258.15" y="-21.68" font-family="Times,serif" font-weight="bold" font-size="24.00">result</text>
<text text-anchor="start" x="320.48" y="-23.28" font-family="Times,serif" font-weight="bold" baseline-shift="super" font-size="20" fill="red">14</text>
</g>
<!-- 16&#45;&gt;54 -->
<g id="edge10" class="edge" data-name="16-&gt;54">

<path fill="none" stroke="black" d="M295.48,-92.19C295.48,-84.2 295.48,-75.34 295.48,-66.86"/>
<polygon fill="black" stroke="black" points="298.98,-66.78 295.48,-56.78 291.98,-66.78 298.98,-66.78"/>
</g>
<!-- 18 -->
<g id="node4" class="node" pointer-events="visible" data-name="18">

<ellipse fill="none" stroke="black" cx="288.48" cy="-213.42" rx="37.45" ry="28.07"/>
<text text-anchor="start" x="272.23" y="-209.22" font-family="Times,serif" font-size="14.00"> </text>
<polygon fill="#00ff00" stroke="transparent" points="277.48,-197.42 277.48,-229.42 293.48,-229.42 293.48,-197.42 277.48,-197.42"/>
<text text-anchor="start" x="279.48" y="-206.82" font-family="Times,serif" font-weight="bold" font-size="24.00">0</text>
<text text-anchor="start" x="295.48" y="-208.42" font-family="Times,serif" font-weight="bold" baseline-shift="super" font-size="20" fill="red">4</text>
</g>
<!-- 18&#45;&gt;16 -->
<g id="edge1" class="edge" data-name="18-&gt;16">

<path fill="none" stroke="black" d="M290.61,-184.76C291.23,-176.77 291.92,-167.91 292.57,-159.43"/>
<polygon fill="black" stroke="black" points="296.07,-159.59 293.35,-149.35 289.09,-159.05 296.07,-159.59"/>
</g>
<!-- 27 -->
<g id="node7" class="node" pointer-events="visible" data-name="27">

<ellipse fill="none" stroke="black" cx="467.48" cy="-120.85" rx="70.01" ry="28.07"/>
<text text-anchor="start" x="428.23" y="-116.65" font-family="Times,serif" font-size="14.00"> </text>
<polygon fill="#00ff00" stroke="transparent" points="433.48,-104.85 433.48,-136.85 495.48,-136.85 495.48,-104.85 433.48,-104.85"/>
<text text-anchor="start" x="435.15" y="-114.25" font-family="Times,serif" font-weight="bold" font-size="24.00">result</text>
<text text-anchor="start" x="497.48" y="-115.85" font-family="Times,serif" font-weight="bold" baseline-shift="super" font-size="20" fill="red">7</text>
</g>
<!-- 27&#45;&gt;54 -->
<g id="edge11" class="edge" data-name="27-&gt;54">

<path fill="none" stroke="black" d="M425.84,-97.93C402.29,-85.53 372.62,-69.9 347.54,-56.7"/>
<polygon fill="black" stroke="black" points="349,-53.51 338.53,-51.95 345.74,-59.71 349,-53.51"/>
</g>
<!-- 29&#45;&gt;27 -->
<g id="edge4" class="edge" data-name="29-&gt;27">

<path fill="none" stroke="black" d="M472.34,-184.76C471.72,-176.77 471.04,-167.91 470.38,-159.43"/>
<polygon fill="black" stroke="black" points="473.86,-159.05 469.6,-149.35 466.88,-159.59 473.86,-159.05"/>
</g>
<!-- 34 -->
<g id="node9" class="node" pointer-events="visible" data-name="34">

<ellipse fill="none" stroke="black" cx="137.48" cy="-120.85" rx="70.01" ry="28.07"/>
<text text-anchor="start" x="98.23" y="-116.65" font-family="Times,serif" font-size="14.00"> </text>
<polygon fill="#00ff00" stroke="transparent" points="103.48,-104.85 103.48,-136.85 165.48,-136.85 165.48,-104.85 103.48,-104.85"/>
<text text-anchor="start" x="105.15" y="-114.25" font-family="Times,serif" font-weight="bold" font-size="24.00">result</text>
<text text-anchor="start" x="167.48" y="-115.85" font-family="Times,serif" font-weight="bold" baseline-shift="super" font-size="20" fill="red">9</text>
</g>
<!-- 34&#45;&gt;54 -->
<g id="edge12" class="edge" data-name="34-&gt;54">

<path fill="none" stroke="black" d="M176.94,-97.23C198,-85.16 224.11,-70.19 246.46,-57.38"/>
<polygon fill="black" stroke="black" points="248.21,-60.41 255.14,-52.4 244.73,-54.34 248.21,-60.41"/>
</g>
<!-- 36&#45;&gt;34 -->
<g id="edge6" class="edge" data-name="36-&gt;34">

<path fill="none" stroke="black" d="M137.48,-184.76C137.48,-176.77 137.48,-167.91 137.48,-159.43"/>
<polygon fill="black" stroke="black" points="140.98,-159.35 137.48,-149.35 133.98,-159.35 140.98,-159.35"/>
</g>
<!-- 40 -->
<g id="node11" class="node" pointer-events="visible" data-name="40">

<ellipse fill="none" stroke="black" cx="662.48" cy="-213.42" rx="107.46" ry="28.07"/>
<text text-anchor="start" x="596.23" y="-209.22" font-family="Times,serif" font-size="14.00"> </text>
<polygon fill="#cccccc" stroke="transparent" points="601.48,-197.42 601.48,-229.42 706.48,-229.42 706.48,-197.42 601.48,-197.42"/>
<text text-anchor="start" x="603.33" y="-206.82" font-family="Times,serif" font-weight="bold" font-size="24.00">irrelevant</text>
<text text-anchor="start" x="708.48" y="-208.42" font-family="Times,serif" font-weight="bold" baseline-shift="super" font-size="20" fill="red">11</text>
</g>
<!-- 50 -->
<g id="node13" class="node" pointer-events="visible" data-name="50">

<ellipse fill="none" stroke="black" cx="662.48" cy="-120.85" rx="107.46" ry="28.07"/>
<text text-anchor="start" x="596.23" y="-116.65" font-family="Times,serif" font-size="14.00"> </text>
<polygon fill="#cccccc" stroke="transparent" points="601.48,-104.85 601.48,-136.85 706.48,-136.85 706.48,-104.85 601.48,-104.85"/>
<text text-anchor="start" x="603.33" y="-114.25" font-family="Times,serif" font-weight="bold" font-size="24.00">irrelevant</text>
<text text-anchor="start" x="708.48" y="-115.85" font-family="Times,serif" font-weight="bold" baseline-shift="super" font-size="20" fill="red">13</text>
</g>
<!-- 40&#45;&gt;50 -->
<g id="edge9" class="edge" data-name="40-&gt;50">

<path fill="none" stroke="black" d="M662.48,-184.76C662.48,-176.77 662.48,-167.91 662.48,-159.43"/>
<polygon fill="black" stroke="black" points="665.98,-159.35 662.48,-149.35 658.98,-159.35 665.98,-159.35"/>
</g>
<!-- 42 -->
<g id="node12" class="node" pointer-events="visible" data-name="42">

<ellipse fill="none" stroke="black" cx="662.48" cy="-305.99" rx="140.01" ry="28.07"/>
<text text-anchor="start" x="573.23" y="-301.79" font-family="Times,serif" font-size="14.00"> </text>
<polygon fill="#cccccc" stroke="transparent" points="578.48,-289.99 578.48,-321.99 729.48,-321.99 729.48,-289.99 578.48,-289.99"/>
<text text-anchor="start" x="580.33" y="-299.39" font-family="Times,serif" font-weight="bold" font-size="24.00">"log message"</text>
<text text-anchor="start" x="731.48" y="-300.99" font-family="Times,serif" font-weight="bold" baseline-shift="super" font-size="20" fill="red">12</text>
</g>
<!-- 42&#45;&gt;40 -->
<g id="edge8" class="edge" data-name="42-&gt;40">

<path fill="none" stroke="black" d="M662.48,-277.32C662.48,-269.34 662.48,-260.48 662.48,-252"/>
<polygon fill="black" stroke="black" points="665.98,-251.92 662.48,-241.92 658.98,-251.92 665.98,-251.92"/>
</g>
</g>
</svg>