<?xml version="1.0" encoding="UTF-8" standalone="no"?>
<!DOCTYPE svg PUBLIC "-//W3C//DTD SVG 1.1//EN" "http://www.w3.org/Graphics/SVG/1.1/DTD/svg11.dtd">
<!-- Generated by graphviz version 2.40.1 (20161225.0304)
 -->
<!-- Title: %0 Pages: 1 -->
<svg width="504pt" height="534pt" viewBox="0.00 0.00 503.62 534.16" xmlns="http://www.w3.org/2000/svg" xmlns:xlink="http://www.w3.org/1999/xlink">
<g id="graph0" class="graph" transform="scale(1 1) rotate(0) translate(4 530.1564)">
<title>%0</title>
<polygon fill="#ffffff" stroke="transparent" points="-4,4 -4,-530.1564 499.6209,-530.1564 499.6209,4 -4,4"/>
<g id="clust1" class="cluster">
<title>cluster_0</title>
<polygon fill="#ffffff" stroke="#ffffff" points="8.3703,-72 8.3703,-210.8313 126.3703,-210.8313 126.3703,-72 8.3703,-72"/>
</g>
<g id="clust2" class="cluster">
<title>cluster_2</title>
<polygon fill="#ffffff" stroke="#ffffff" points="134.3703,-8 134.3703,-124 362.3703,-124 362.3703,-8 134.3703,-8"/>
</g>
<!-- level 0 -->
<g id="node1" class="node">
<title>level 0</title>
<ellipse fill="none" stroke="#000000" cx="206.3703" cy="-496.7408" rx="55.0793" ry="29.3315"/>
<text text-anchor="middle" x="206.3703" y="-500.9408" font-family="Times,serif" font-size="14.00" fill="#000000">method</text>
<text text-anchor="middle" x="206.3703" y="-484.1408" font-family="Times,serif" font-size="14.00" fill="#000000">declaration</text>
</g>
<!-- level 1&#45;1 -->
<g id="node2" class="node">
<title>level 1-1</title>
<ellipse fill="none" stroke="#000000" cx="50.3703" cy="-415.9095" rx="41.0184" ry="29.3315"/>
<text text-anchor="middle" x="50.3703" y="-420.1095" font-family="Times,serif" font-size="14.00" fill="#000000">method</text>
<text text-anchor="middle" x="50.3703" y="-403.3095" font-family="Times,serif" font-size="14.00" fill="#000000">name</text>
</g>
<!-- level 0&#45;&gt;level 1&#45;1 -->
<g id="edge1" class="edge">
<title>level 0-&gt;level 1-1</title>
<path fill="none" stroke="#000000" d="M162.9527,-478.3861C142.1532,-469.1519 117.1004,-457.3767 95.3703,-445.3251 93.3807,-444.2217 91.3621,-443.0618 89.3379,-441.866"/>
<polygon fill="#000000" stroke="#000000" points="90.8576,-438.6927 80.501,-436.4586 87.204,-444.6635 90.8576,-438.6927"/>
</g>
<!-- level 1&#45;2 -->
<g id="node3" class="node">
<title>level 1-2</title>
<ellipse fill="none" stroke="#000000" cx="151.3703" cy="-415.9095" rx="53.2859" ry="18"/>
<text text-anchor="middle" x="151.3703" y="-411.7095" font-family="Times,serif" font-size="14.00" fill="#000000">parameters</text>
</g>
<!-- level 0&#45;&gt;level 1&#45;2 -->
<g id="edge2" class="edge">
<title>level 0-&gt;level 1-2</title>
<path fill="none" stroke="#000000" d="M187.4424,-468.9232C181.5385,-460.2465 175.0489,-450.7089 169.2213,-442.1444"/>
<polygon fill="#000000" stroke="#000000" points="171.9595,-439.9469 163.4403,-433.6483 166.1722,-443.8848 171.9595,-439.9469"/>
</g>
<!-- invisible1 -->
<g id="node4" class="node">
<title>invisible1</title>
</g>
<!-- level 0&#45;&gt;invisible1 -->
<g id="edge3" class="edge">
<title>level 0-&gt;invisible1</title>
<path fill="none" stroke="#ffffff" d="M225.2982,-468.9232C231.2021,-460.2465 237.6917,-450.7089 243.5193,-442.1444"/>
<polygon fill="#ffffff" stroke="#ffffff" points="246.5684,-443.8848 249.3003,-433.6483 240.7811,-439.9469 246.5684,-443.8848"/>
</g>
<!-- level 1&#45;3 -->
<g id="node5" class="node">
<title>level 1-3</title>
<ellipse fill="none" stroke="#000000" cx="299.3703" cy="-335.0782" rx="41.0184" ry="29.3315"/>
<text text-anchor="middle" x="299.3703" y="-339.2782" font-family="Times,serif" font-size="14.00" fill="#000000">method</text>
<text text-anchor="middle" x="299.3703" y="-322.4782" font-family="Times,serif" font-size="14.00" fill="#000000">body</text>
</g>
<!-- level 0&#45;&gt;level 1&#45;3 -->
<g id="edge4" class="edge">
<title>level 0-&gt;level 1-3</title>
<path fill="none" stroke="#000000" d="M246.5908,-476.4686C252.8606,-473.372 259.2784,-470.2389 265.3703,-467.3251 286.5407,-457.1994 300.6964,-465.0758 313.3703,-445.3251 327.0762,-423.9663 323.0017,-395.4511 315.7998,-372.7722"/>
<polygon fill="#000000" stroke="#000000" points="319.0366,-371.4239 312.4447,-363.1295 312.4254,-373.7243 319.0366,-371.4239"/>
</g>
<!-- level 2&#45;1 -->
<g id="node7" class="node">
<title>level 2-1</title>
<polygon fill="none" stroke="#000000" points="100.6112,-353.0782 .1294,-353.0782 .1294,-317.0782 100.6112,-317.0782 100.6112,-353.0782"/>
<text text-anchor="middle" x="50.3703" y="-330.8782" font-family="Times,serif" font-size="14.00" fill="#000000">parameterFlow</text>
</g>
<!-- level 1&#45;1&#45;&gt;level 2&#45;1 -->
<g id="edge6" class="edge">
<title>level 1-1-&gt;level 2-1</title>
<path fill="none" stroke="#000000" d="M50.3703,-386.2699C50.3703,-378.8834 50.3703,-370.9787 50.3703,-363.6451"/>
<polygon fill="#000000" stroke="#000000" points="53.8704,-363.4358 50.3703,-353.4359 46.8704,-363.4359 53.8704,-363.4358"/>
</g>
<!-- level 2&#45;2 -->
<g id="node8" class="node">
<title>level 2-2</title>
<polygon fill="none" stroke="#000000" points="169.3703,-353.0782 115.3703,-353.0782 115.3703,-317.0782 169.3703,-317.0782 169.3703,-353.0782"/>
<text text-anchor="middle" x="142.3703" y="-330.8782" font-family="Times,serif" font-size="14.00" fill="#000000">int x</text>
</g>
<!-- level 1&#45;2&#45;&gt;level 2&#45;2 -->
<g id="edge7" class="edge">
<title>level 1-2-&gt;level 2-2</title>
<path fill="none" stroke="#000000" d="M149.3281,-397.5676C148.2119,-387.5429 146.8047,-374.9045 145.5483,-363.621"/>
<polygon fill="#000000" stroke="#000000" points="148.9896,-362.8987 144.4045,-353.3475 142.0326,-363.6734 148.9896,-362.8987"/>
</g>
<!-- level 2&#45;3 -->
<g id="node9" class="node">
<title>level 2-3</title>
<polygon fill="none" stroke="#000000" points="230.3703,-353.0782 176.3703,-353.0782 176.3703,-317.0782 230.3703,-317.0782 230.3703,-353.0782"/>
<text text-anchor="middle" x="203.3703" y="-330.8782" font-family="Times,serif" font-size="14.00" fill="#000000">int y</text>
</g>
<!-- level 1&#45;2&#45;&gt;level 2&#45;3 -->
<g id="edge8" class="edge">
<title>level 1-2-&gt;level 2-3</title>
<path fill="none" stroke="#000000" d="M162.9108,-397.9704C169.73,-387.3703 178.495,-373.7456 186.1224,-361.8892"/>
<polygon fill="#000000" stroke="#000000" points="189.2154,-363.5503 191.6823,-353.2467 183.3284,-359.7631 189.2154,-363.5503"/>
</g>
<!-- invisible1&#45;&gt;level 1&#45;3 -->
<g id="edge5" class="edge">
<title>invisible1-&gt;level 1-3</title>
<path fill="none" stroke="#ffffff" d="M269.8037,-397.9704C273.3739,-390.3761 277.674,-381.2292 281.8753,-372.2924"/>
<polygon fill="#ffffff" stroke="#ffffff" points="285.096,-373.6682 286.1831,-363.1293 278.7611,-370.6901 285.096,-373.6682"/>
</g>
<!-- level 3&#45;1 -->
<g id="node10" class="node">
<title>level 3-1</title>
<ellipse fill="none" stroke="#000000" cx="105.3703" cy="-254.2469" rx="53.7962" ry="29.3315"/>
<text text-anchor="middle" x="105.3703" y="-258.4469" font-family="Times,serif" font-size="14.00" fill="#000000">expression</text>
<text text-anchor="middle" x="105.3703" y="-241.6469" font-family="Times,serif" font-size="14.00" fill="#000000">statement</text>
</g>
<!-- level 1&#45;3&#45;&gt;level 3&#45;1 -->
<g id="edge9" class="edge">
<title>level 1-3-&gt;level 3-1</title>
<path fill="none" stroke="#000000" d="M264.7543,-319.0595C254.9705,-314.6283 244.287,-309.8801 234.3703,-305.6626 209.7035,-295.1718 182.1305,-284.0954 158.8284,-274.9208"/>
<polygon fill="#000000" stroke="#000000" points="160.0463,-271.639 149.4588,-271.2435 157.4888,-278.1551 160.0463,-271.639"/>
</g>
<!-- level 3&#45;2 -->
<g id="node11" class="node">
<title>level 3-2</title>
<ellipse fill="none" stroke="#000000" cx="251.3703" cy="-254.2469" rx="49.0024" ry="29.3315"/>
<text text-anchor="middle" x="251.3703" y="-258.4469" font-family="Times,serif" font-size="14.00" fill="#000000">IF</text>
<text text-anchor="middle" x="251.3703" y="-241.6469" font-family="Times,serif" font-size="14.00" fill="#000000">statement</text>
</g>
<!-- level 1&#45;3&#45;&gt;level 3&#45;2 -->
<g id="edge10" class="edge">
<title>level 1-3-&gt;level 3-2</title>
<path fill="none" stroke="#000000" d="M283.1197,-307.7124C279.907,-302.3023 276.4867,-296.5426 273.1257,-290.8827"/>
<polygon fill="#000000" stroke="#000000" points="276.0465,-288.9464 267.9312,-282.1352 270.0277,-292.5205 276.0465,-288.9464"/>
</g>
<!-- level 3&#45;3 -->
<g id="node12" class="node">
<title>level 3-3</title>
<text text-anchor="middle" x="348.3703" y="-242.2469" font-family="Times,serif" font-size="40.00" fill="#000000">···</text>
</g>
<!-- level 1&#45;3&#45;&gt;level 3&#45;3 -->
<g id="edge11" class="edge">
<title>level 1-3-&gt;level 3-3</title>
<path fill="none" stroke="#000000" d="M315.9595,-307.7124C319.9297,-301.163 324.2105,-294.1013 328.3186,-287.3245"/>
<polygon fill="#000000" stroke="#000000" points="331.5773,-288.7006 333.7682,-278.3348 325.5913,-285.0719 331.5773,-288.7006"/>
</g>
<!-- level 3&#45;4 -->
<g id="node13" class="node">
<title>level 3-4</title>
<ellipse fill="none" stroke="#000000" cx="446.3703" cy="-254.2469" rx="49.0024" ry="29.3315"/>
<text text-anchor="middle" x="446.3703" y="-258.4469" font-family="Times,serif" font-size="14.00" fill="#000000">return</text>
<text text-anchor="middle" x="446.3703" y="-241.6469" font-family="Times,serif" font-size="14.00" fill="#000000">statement</text>
</g>
<!-- level 1&#45;3&#45;&gt;level 3&#45;4 -->
<g id="edge12" class="edge">
<title>level 1-3-&gt;level 3-4</title>
<path fill="none" stroke="#000000" d="M331.9944,-317.1391C352.2897,-305.9793 378.682,-291.4669 400.9995,-279.1951"/>
<polygon fill="#000000" stroke="#000000" points="402.8892,-282.1503 409.9654,-274.265 399.5163,-276.0165 402.8892,-282.1503"/>
</g>
<!-- invisible0 -->
<g id="node6" class="node">
<title>invisible0</title>
</g>
<!-- variable
declarator -->
<g id="node14" class="node">
<title>variable
declarator</title>
<ellipse fill="none" stroke="#000000" cx="67.3703" cy="-173.4156" rx="50.7682" ry="29.3315"/>
<text text-anchor="middle" x="67.3703" y="-177.6156" font-family="Times,serif" font-size="14.00" fill="#000000">variable</text>
<text text-anchor="middle" x="67.3703" y="-160.8156" font-family="Times,serif" font-size="14.00" fill="#000000">declarator</text>
</g>
<!-- level 3&#45;1&#45;&gt;variable
declarator -->
<g id="edge22" class="edge">
<title>level 3-1-&gt;variable
declarator</title>
<path fill="none" stroke="#000000" d="M91.8659,-225.5212C89.682,-220.8757 87.3921,-216.0048 85.1259,-211.1842"/>
<polygon fill="#000000" stroke="#000000" points="88.2532,-209.6096 80.8312,-202.0488 81.9183,-212.5877 88.2532,-209.6096"/>
</g>
<!-- condition -->
<g id="node16" class="node">
<title>condition</title>
<ellipse fill="none" stroke="#000000" cx="250.3703" cy="-173.4156" rx="47.5332" ry="18"/>
<text text-anchor="middle" x="250.3703" y="-169.2156" font-family="Times,serif" font-size="14.00" fill="#000000">condition</text>
</g>
<!-- level 3&#45;2&#45;&gt;condition -->
<g id="edge23" class="edge">
<title>level 3-2-&gt;condition</title>
<path fill="none" stroke="#000000" d="M251.0036,-224.6073C250.9122,-217.2208 250.8144,-209.3162 250.7237,-201.9825"/>
<polygon fill="#000000" stroke="#000000" points="254.2209,-201.7292 250.5974,-191.7733 247.2215,-201.8159 254.2209,-201.7292"/>
</g>
<!-- alternative -->
<g id="node24" class="node">
<title>alternative</title>
<ellipse fill="none" stroke="#000000" cx="356.3703" cy="-173.4156" rx="51.5804" ry="18"/>
<text text-anchor="middle" x="356.3703" y="-169.2156" font-family="Times,serif" font-size="14.00" fill="#000000">alternative</text>
</g>
<!-- level 3&#45;2&#45;&gt;alternative -->
<g id="edge21" class="edge">
<title>level 3-2-&gt;alternative</title>
<path fill="none" stroke="#000000" d="M281.7407,-230.8672C295.9172,-219.9538 312.7288,-207.0118 326.8035,-196.1768"/>
<polygon fill="#000000" stroke="#000000" points="328.9446,-198.9455 334.7336,-190.072 324.6746,-193.3987 328.9446,-198.9455"/>
</g>
<!-- final -->
<g id="node25" class="node">
<title>final</title>
<ellipse fill="none" stroke="#000000" cx="447.3703" cy="-173.4156" rx="32.4788" ry="18"/>
<text text-anchor="middle" x="447.3703" y="-169.2156" font-family="Times,serif" font-size="14.00" fill="#000000">result</text>
</g>
<!-- level 3&#45;4&#45;&gt;final -->
<g id="edge24" class="edge">
<title>level 3-4-&gt;final</title>
<path fill="none" stroke="#000000" d="M446.737,-224.6073C446.8284,-217.2208 446.9262,-209.3162 447.0169,-201.9825"/>
<polygon fill="#000000" stroke="#000000" points="450.5191,-201.8159 447.1432,-191.7733 443.5197,-201.7292 450.5191,-201.8159"/>
</g>
<!-- result -->
<g id="node15" class="node">
<title>result</title>
<ellipse fill="none" stroke="#000000" cx="67.3703" cy="-98" rx="32.4788" ry="18"/>
<text text-anchor="middle" x="67.3703" y="-93.8" font-family="Times,serif" font-size="14.00" fill="#000000">result</text>
</g>
<!-- variable
declarator&#45;&gt;result -->
<g id="edge13" class="edge">
<title>variable
declarator-&gt;result</title>
<path fill="none" stroke="#000000" d="M67.3703,-143.6094C67.3703,-137.9894 67.3703,-132.1243 67.3703,-126.5442"/>
<polygon fill="#000000" stroke="#000000" points="70.8704,-126.3041 67.3703,-116.3041 63.8704,-126.3042 70.8704,-126.3041"/>
</g>
<!-- left -->
<g id="node17" class="node">
<title>left</title>
<ellipse fill="none" stroke="#000000" cx="327.3703" cy="-98" rx="27" ry="18"/>
<text text-anchor="middle" x="327.3703" y="-93.8" font-family="Times,serif" font-size="14.00" fill="#000000">left</text>
</g>
<!-- condition&#45;&gt;left -->
<g id="edge14" class="edge">
<title>condition-&gt;left</title>
<path fill="none" stroke="#000000" d="M267.8428,-156.3027C278.7624,-145.6078 292.9373,-131.7245 304.7155,-120.1886"/>
<polygon fill="#000000" stroke="#000000" points="307.3559,-122.5017 312.0511,-113.004 302.4579,-117.5007 307.3559,-122.5017"/>
</g>
<!-- operator -->
<g id="node18" class="node">
<title>operator</title>
<ellipse fill="none" stroke="#000000" cx="250.3703" cy="-98" rx="43.4183" ry="18"/>
<text text-anchor="middle" x="250.3703" y="-93.8" font-family="Times,serif" font-size="14.00" fill="#000000">operator</text>
</g>
<!-- condition&#45;&gt;operator -->
<g id="edge15" class="edge">
<title>condition-&gt;operator</title>
<path fill="none" stroke="#000000" d="M250.3703,-155.1596C250.3703,-146.452 250.3703,-135.8386 250.3703,-126.1318"/>
<polygon fill="#000000" stroke="#000000" points="253.8704,-126.0879 250.3703,-116.0879 246.8704,-126.0879 253.8704,-126.0879"/>
</g>
<!-- right -->
<g id="node19" class="node">
<title>right</title>
<ellipse fill="none" stroke="#000000" cx="171.3703" cy="-98" rx="29.0529" ry="18"/>
<text text-anchor="middle" x="171.3703" y="-93.8" font-family="Times,serif" font-size="14.00" fill="#000000">right</text>
</g>
<!-- condition&#45;&gt;right -->
<g id="edge16" class="edge">
<title>condition-&gt;right</title>
<path fill="none" stroke="#000000" d="M232.8376,-156.6785C221.5444,-145.8976 206.7384,-131.7634 194.4877,-120.0685"/>
<polygon fill="#000000" stroke="#000000" points="196.8944,-117.5272 187.2443,-113.1538 192.0608,-122.5905 196.8944,-117.5272"/>
</g>
<!-- y -->
<g id="node20" class="node">
<title>y</title>
<polygon fill="none" stroke="#000000" points="354.3703,-52 300.3703,-52 300.3703,-16 354.3703,-16 354.3703,-52"/>
<text text-anchor="middle" x="327.3703" y="-29.8" font-family="Times,serif" font-size="14.00" fill="#000000">y</text>
</g>
<!-- left&#45;&gt;y -->
<g id="edge17" class="edge">
<title>left-&gt;y</title>
<path fill="none" stroke="#000000" d="M327.3703,-79.8314C327.3703,-74.4728 327.3703,-68.4735 327.3703,-62.6262"/>
<polygon fill="#000000" stroke="#000000" points="330.8704,-62.4363 327.3703,-52.4363 323.8704,-62.4363 330.8704,-62.4363"/>
</g>
<!-- &lt; -->
<g id="node21" class="node">
<title>&lt;</title>
<polygon fill="none" stroke="#000000" points="277.3703,-52 223.3703,-52 223.3703,-16 277.3703,-16 277.3703,-52"/>
<text text-anchor="middle" x="250.3703" y="-29.8" font-family="Times,serif" font-size="14.00" fill="#000000">&lt;</text>
</g>
<!-- operator&#45;&gt;&lt; -->
<g id="edge18" class="edge">
<title>operator-&gt;&lt;</title>
<path fill="none" stroke="#000000" d="M250.3703,-79.8314C250.3703,-74.4728 250.3703,-68.4735 250.3703,-62.6262"/>
<polygon fill="#000000" stroke="#000000" points="253.8704,-62.4363 250.3703,-52.4363 246.8704,-62.4363 253.8704,-62.4363"/>
</g>
<!-- x -->
<g id="node22" class="node">
<title>x</title>
<polygon fill="none" stroke="#000000" points="198.3703,-52 144.3703,-52 144.3703,-16 198.3703,-16 198.3703,-52"/>
<text text-anchor="middle" x="171.3703" y="-29.8" font-family="Times,serif" font-size="14.00" fill="#000000">x</text>
</g>
<!-- right&#45;&gt;x -->
<g id="edge19" class="edge">
<title>right-&gt;x</title>
<path fill="none" stroke="#000000" d="M171.3703,-79.8314C171.3703,-74.4728 171.3703,-68.4735 171.3703,-62.6262"/>
<polygon fill="#000000" stroke="#000000" points="174.8704,-62.4363 171.3703,-52.4363 167.8704,-62.4363 174.8704,-62.4363"/>
</g>
<!-- ignore2 -->
<g id="node23" class="node">
<title>ignore2</title>
<text text-anchor="middle" x="411.3703" y="-86" font-family="Times,serif" font-size="40.00" fill="#000000">···</text>
</g>
<!-- alternative&#45;&gt;ignore2 -->
<g id="edge20" class="edge">
<title>alternative-&gt;ignore2</title>
<path fill="none" stroke="#000000" d="M369.1266,-155.9242C374.6577,-148.3401 381.3185,-139.2068 387.6989,-130.4581"/>
<polygon fill="#000000" stroke="#000000" points="390.6196,-132.3931 393.6842,-122.2511 384.9639,-128.2684 390.6196,-132.3931"/>
</g>
</g>
</svg>