<?xml version="1.0" standalone="no"?>
<svg xmlns="http://www.w3.org/2000/svg" xmlns:xlink="http://www.w3.org/1999/xlink" width="880pt" height="417pt" viewBox="0.00 0.00 879.57 416.92">
<g id="graph0" class="graph" transform="translate(4,412.9200134277344) scale(1)" data-name="">
<polygon fill="white" stroke="transparent" points="-4,4 -4,-412.92 875.57,-412.92 875.57,4 -4,4" style=""/>
<!-- 9 -->
<g id="node1" class="node" pointer-events="visible" data-name="9">

<polygon fill="none" stroke="red" points="143.19,-357.58 143.19,-383.03 119.39,-401.02 85.74,-401.02 61.94,-383.03 61.94,-357.58 85.74,-339.59 119.39,-339.59 143.19,-357.58" style=""/>
<polygon fill="none" stroke="red" points="147.19,-355.58 147.19,-385.02 120.73,-405.03 84.4,-405.03 57.94,-385.02 57.94,-355.58 84.4,-335.57 120.73,-335.57 147.19,-355.58" style=""/>
<text text-anchor="start" x="86.31" y="-366.1" font-family="Times,serif" font-size="14.00" style=""> </text>
<polygon fill="#00ff00" stroke="transparent" points="91.56,-354.3 91.56,-386.3 107.56,-386.3 107.56,-354.3 91.56,-354.3" style=""/>
<text text-anchor="start" x="93.56" y="-363.7" font-family="Times,serif" font-weight="bold" font-size="24.00" style="">x</text>
<text text-anchor="start" x="109.56" y="-365.3" font-family="Times,serif" font-weight="bold" baseline-shift="super" font-size="20.00" fill="red" style="">1</text>
</g>
<!-- 24 -->
<g id="node6" class="node" pointer-events="visible" data-name="24">

<polygon fill="none" stroke="red" points="85.19,-244.35 85.19,-269.8 61.39,-287.79 27.74,-287.79 3.94,-269.8 3.94,-244.35 27.74,-226.36 61.39,-226.36 85.19,-244.35" style=""/>
<polygon fill="none" stroke="red" points="89.19,-242.35 89.19,-271.8 62.73,-291.8 26.4,-291.8 -0.06,-271.8 -0.06,-242.35 26.4,-222.34 62.73,-222.34 89.19,-242.35" style=""/>
<text text-anchor="start" x="28.31" y="-252.87" font-family="Times,serif" font-size="14.00" style=""> </text>
<polygon fill="#00ff00" stroke="transparent" points="33.56,-241.07 33.56,-273.07 49.56,-273.07 49.56,-241.07 33.56,-241.07" style=""/>
<text text-anchor="start" x="35.56" y="-250.47" font-family="Times,serif" font-weight="bold" font-size="24.00" style="">x</text>
<text text-anchor="start" x="51.56" y="-252.07" font-family="Times,serif" font-weight="bold" baseline-shift="super" font-size="20.00" fill="red" style="">6</text>
</g>
<!-- 9&#45;&gt;24 -->
<g id="edge3" class="edge" data-name="9-&gt;24">

<path fill="none" stroke="black" d="M85.01,-335.63C79.32,-324.73 72.94,-312.49 66.96,-301.02" style=""/>
<polygon fill="black" stroke="black" points="69.99,-299.27 62.26,-292.02 63.78,-302.5 69.99,-299.27" style=""/>
</g>
<!-- 36 -->
<g id="node10" class="node" pointer-events="visible" data-name="36">

<polygon fill="none" stroke="red" points="207.98,-244.35 207.98,-269.8 179.62,-287.79 139.51,-287.79 111.14,-269.8 111.14,-244.35 139.51,-226.36 179.62,-226.36 207.98,-244.35" style=""/>
<polygon fill="none" stroke="red" points="212,-242.14 212,-272 180.79,-291.8 138.34,-291.8 107.13,-272 107.13,-242.14 138.34,-222.34 180.79,-222.34 212,-242.14" style=""/>
<text text-anchor="start" x="138.31" y="-252.87" font-family="Times,serif" font-size="14.00" style=""> </text>
<polygon fill="#00ff00" stroke="transparent" points="143.56,-241.07 143.56,-273.07 159.56,-273.07 159.56,-241.07 143.56,-241.07" style=""/>
<text text-anchor="start" x="145.56" y="-250.47" font-family="Times,serif" font-weight="bold" font-size="24.00" style="">x</text>
<text text-anchor="start" x="161.56" y="-252.07" font-family="Times,serif" font-weight="bold" baseline-shift="super" font-size="20.00" fill="red" style="">10</text>
</g>
<!-- 9&#45;&gt;36 -->
<g id="edge7" class="edge" data-name="9-&gt;36">

<path fill="none" stroke="black" d="M119.82,-335.63C125.41,-324.73 131.68,-312.49 137.56,-301.02" style=""/>
<polygon fill="black" stroke="black" points="140.72,-302.51 142.17,-292.02 134.49,-299.32 140.72,-302.51" style=""/>
</g>
<!-- 12 -->
<g id="node2" class="node" pointer-events="visible" data-name="12">

<polygon fill="none" stroke="blue" points="517.18,-357.58 517.18,-383.02 493.39,-401.01 459.74,-401.01 435.95,-383.02 435.95,-357.58 459.74,-339.6 493.39,-339.6 517.18,-357.58" style=""/>
<polygon fill="none" stroke="blue" points="521.19,-355.59 521.19,-385.02 494.73,-405.02 458.4,-405.02 431.94,-385.02 431.94,-355.59 458.4,-335.58 494.73,-335.58 521.19,-355.59" style=""/>
<polygon fill="none" stroke="blue" points="525.19,-353.59 525.19,-387.02 496.07,-409.03 457.06,-409.03 427.94,-387.02 427.94,-353.59 457.06,-331.57 496.07,-331.57 525.19,-353.59" style=""/>
<text text-anchor="start" x="460.31" y="-366.1" font-family="Times,serif" font-size="14.00" style=""> </text>
<polygon fill="#00ff00" stroke="transparent" points="465.56,-354.3 465.56,-386.3 481.56,-386.3 481.56,-354.3 465.56,-354.3" style=""/>
<text text-anchor="start" x="467.56" y="-363.7" font-family="Times,serif" font-weight="bold" font-size="24.00" style="">y</text>
<text text-anchor="start" x="483.56" y="-365.3" font-family="Times,serif" font-weight="bold" baseline-shift="super" font-size="20.00" fill="red" style="">2</text>
</g>
<!-- 22 -->
<g id="node5" class="node" pointer-events="visible" data-name="22">

<polygon fill="none" stroke="blue" points="460.18,-244.35 460.18,-269.79 436.39,-287.78 402.74,-287.78 378.95,-269.79 378.95,-244.35 402.74,-226.37 436.39,-226.37 460.18,-244.35" style=""/>
<polygon fill="none" stroke="blue" points="464.19,-242.36 464.19,-271.79 437.73,-291.79 401.4,-291.79 374.94,-271.79 374.94,-242.36 401.4,-222.36 437.73,-222.36 464.19,-242.36" style=""/>
<polygon fill="none" stroke="blue" points="468.19,-240.36 468.19,-273.79 439.07,-295.8 400.06,-295.8 370.94,-273.79 370.94,-240.36 400.06,-218.34 439.07,-218.34 468.19,-240.36" style=""/>
<text text-anchor="start" x="403.31" y="-252.87" font-family="Times,serif" font-size="14.00" style=""> </text>
<polygon fill="#00ff00" stroke="transparent" points="408.56,-241.07 408.56,-273.07 424.56,-273.07 424.56,-241.07 408.56,-241.07" style=""/>
<text text-anchor="start" x="410.56" y="-250.47" font-family="Times,serif" font-weight="bold" font-size="24.00" style="">y</text>
<text text-anchor="start" x="426.56" y="-252.07" font-family="Times,serif" font-weight="bold" baseline-shift="super" font-size="20.00" fill="red" style="">5</text>
</g>
<!-- 12&#45;&gt;22 -->
<g id="edge2" class="edge" data-name="12-&gt;22">

<path fill="none" stroke="black" d="M457.27,-331.65C452.86,-323.04 448.12,-313.79 443.54,-304.85" style=""/>
<polygon fill="black" stroke="black" points="446.52,-303 438.84,-295.69 440.29,-306.19 446.52,-303" style=""/>
</g>
<!-- 29 -->
<g id="node8" class="node" pointer-events="visible" data-name="29">

<polygon fill="none" stroke="blue" points="575.18,-244.35 575.18,-269.79 551.39,-287.78 517.74,-287.78 493.95,-269.79 493.95,-244.35 517.74,-226.37 551.39,-226.37 575.18,-244.35" style=""/>
<polygon fill="none" stroke="blue" points="579.19,-242.36 579.19,-271.79 552.73,-291.79 516.4,-291.79 489.94,-271.79 489.94,-242.36 516.4,-222.36 552.73,-222.36 579.19,-242.36" style=""/>
<polygon fill="none" stroke="blue" points="583.19,-240.36 583.19,-273.79 554.07,-295.8 515.06,-295.8 485.94,-273.79 485.94,-240.36 515.06,-218.34 554.07,-218.34 583.19,-240.36" style=""/>
<text text-anchor="start" x="518.31" y="-252.87" font-family="Times,serif" font-size="14.00" style=""> </text>
<polygon fill="#00ff00" stroke="transparent" points="523.56,-241.07 523.56,-273.07 539.56,-273.07 539.56,-241.07 523.56,-241.07" style=""/>
<text text-anchor="start" x="525.56" y="-250.47" font-family="Times,serif" font-weight="bold" font-size="24.00" style="">y</text>
<text text-anchor="start" x="541.56" y="-252.07" font-family="Times,serif" font-weight="bold" baseline-shift="super" font-size="20.00" fill="red" style="">8</text>
</g>
<!-- 12&#45;&gt;29 -->
<g id="edge5" class="edge" data-name="12-&gt;29">

<path fill="none" stroke="black" d="M496.2,-331.65C500.74,-322.95 505.61,-313.59 510.32,-304.57" style=""/>
<polygon fill="black" stroke="black" points="513.43,-306.18 514.95,-295.69 507.22,-302.94 513.43,-306.18" style=""/>
</g>
<!-- 16 -->
<g id="node3" class="node" pointer-events="visible" data-name="16">

<ellipse fill="none" stroke="black" cx="327.56" cy="-143.84" rx="70.01" ry="28.07" style=""/>
<text text-anchor="start" x="288.31" y="-139.64" font-family="Times,serif" font-size="14.00" style=""> </text>
<polygon fill="#00ff00" stroke="transparent" points="293.56,-127.84 293.56,-159.84 355.56,-159.84 355.56,-127.84 293.56,-127.84" style=""/>
<text text-anchor="start" x="295.24" y="-137.24" font-family="Times,serif" font-weight="bold" font-size="24.00" style="">result</text>
<text text-anchor="start" x="357.56" y="-138.84" font-family="Times,serif" font-weight="bold" baseline-shift="super" font-size="20.00" fill="red" style="">3</text>
</g>
<!-- 54 -->
<g id="node14" class="node" pointer-events="visible" data-name="54">

<polygon fill="none" stroke="red" points="410.92,-21.89 410.92,-47.34 362.09,-65.33 293.04,-65.33 244.21,-47.34 244.21,-21.89 293.04,-3.9 362.09,-3.9 410.92,-21.89" style=""/>
<polygon fill="none" stroke="red" points="414.91,-19.09 414.91,-50.14 362.8,-69.34 292.33,-69.34 240.21,-50.14 240.21,-19.09 292.33,0.12 362.8,0.12 414.91,-19.09" style=""/>
<text text-anchor="start" x="283.31" y="-30.41" font-family="Times,serif" font-size="14.00" style=""> </text>
<polygon fill="#00ff00" stroke="transparent" points="288.56,-18.61 288.56,-50.61 350.56,-50.61 350.56,-18.61 288.56,-18.61" style=""/>
<text text-anchor="start" x="290.24" y="-28.01" font-family="Times,serif" font-weight="bold" font-size="24.00" style="">result</text>
<text text-anchor="start" x="352.56" y="-29.61" font-family="Times,serif" font-weight="bold" baseline-shift="super" font-size="20.00" fill="red" style="">14</text>
</g>
<!-- 16&#45;&gt;54 -->
<g id="edge10" class="edge" data-name="16-&gt;54">

<path fill="none" stroke="black" d="M327.56,-115.51C327.56,-104.55 327.56,-91.65 327.56,-79.45" style=""/>
<polygon fill="black" stroke="black" points="331.06,-79.42 327.56,-69.42 324.06,-79.42 331.06,-79.42" style=""/>
</g>
<!-- 18 -->
<g id="node4" class="node" pointer-events="visible" data-name="18">

<ellipse fill="none" stroke="black" cx="315.56" cy="-257.07" rx="37.45" ry="28.07" style=""/>
<text text-anchor="start" x="299.31" y="-252.87" font-family="Times,serif" font-size="14.00" style=""> </text>
<polygon fill="#00ff00" stroke="transparent" points="304.56,-241.07 304.56,-273.07 320.56,-273.07 320.56,-241.07 304.56,-241.07" style=""/>
<text text-anchor="start" x="306.56" y="-250.47" font-family="Times,serif" font-weight="bold" font-size="24.00" style="">0</text>
<text text-anchor="start" x="322.56" y="-252.07" font-family="Times,serif" font-weight="bold" baseline-shift="super" font-size="20.00" fill="red" style="">4</text>
</g>
<!-- 18&#45;&gt;16 -->
<g id="edge1" class="edge" data-name="18-&gt;16">

<path fill="none" stroke="black" d="M318.5,-228.86C320.01,-214.86 321.88,-197.57 323.52,-182.32" style=""/>
<polygon fill="black" stroke="black" points="327.02,-182.48 324.62,-172.16 320.07,-181.73 327.02,-182.48" style=""/>
</g>
<!-- 27 -->
<g id="node7" class="node" pointer-events="visible" data-name="27">

<polygon fill="none" stroke="blue" points="598.13,-131.13 598.13,-156.56 553.86,-174.55 491.26,-174.55 447,-156.56 447,-131.13 491.26,-113.14 553.86,-113.14 598.13,-131.13" style=""/>
<polygon fill="none" stroke="blue" points="602.12,-128.42 602.12,-159.27 554.64,-178.56 490.49,-178.56 443.01,-159.27 443.01,-128.42 490.49,-109.13 554.64,-109.13 602.12,-128.42" style=""/>
<polygon fill="none" stroke="blue" points="606.11,-125.71 606.11,-161.97 555.42,-182.57 489.71,-182.57 439.02,-161.97 439.02,-125.71 489.71,-105.11 555.42,-105.11 606.11,-125.71" style=""/>
<text text-anchor="start" x="483.31" y="-139.64" font-family="Times,serif" font-size="14.00" style=""> </text>
<polygon fill="#00ff00" stroke="transparent" points="488.56,-127.84 488.56,-159.84 550.56,-159.84 550.56,-127.84 488.56,-127.84" style=""/>
<text text-anchor="start" x="490.24" y="-137.24" font-family="Times,serif" font-weight="bold" font-size="24.00" style="">result</text>
<text text-anchor="start" x="552.56" y="-138.84" font-family="Times,serif" font-weight="bold" baseline-shift="super" font-size="20.00" fill="red" style="">7</text>
</g>
<!-- 27&#45;&gt;54 -->
<g id="edge11" class="edge" data-name="27-&gt;54">

<path fill="none" stroke="black" d="M469.02,-113.4C443.81,-99.54 413.63,-82.94 387.64,-68.65" style=""/>
<polygon fill="black" stroke="black" points="389.09,-65.45 378.64,-63.7 385.71,-71.58 389.09,-65.45" style=""/>
</g>
<!-- 29&#45;&gt;27 -->
<g id="edge4" class="edge" data-name="29-&gt;27">

<path fill="none" stroke="black" d="M530.5,-218.42C529.6,-210.08 528.64,-201.14 527.7,-192.47" style=""/>
<polygon fill="black" stroke="black" points="531.18,-192.03 526.62,-182.46 524.22,-192.78 531.18,-192.03" style=""/>
</g>
<!-- 34 -->
<g id="node9" class="node" pointer-events="visible" data-name="34">

<polygon fill="none" stroke="red" points="235.12,-131.12 235.12,-156.57 190.86,-174.56 128.27,-174.56 84.01,-156.57 84.01,-131.12 128.27,-113.13 190.86,-113.13 235.12,-131.12" style=""/>
<polygon fill="none" stroke="red" points="239.11,-128.41 239.11,-159.27 191.64,-178.57 127.49,-178.57 80.02,-159.27 80.02,-128.41 127.49,-109.11 191.64,-109.11 239.11,-128.41" style=""/>
<text text-anchor="start" x="120.31" y="-139.64" font-family="Times,serif" font-size="14.00" style=""> </text>
<polygon fill="#00ff00" stroke="transparent" points="125.56,-127.84 125.56,-159.84 187.56,-159.84 187.56,-127.84 125.56,-127.84" style=""/>
<text text-anchor="start" x="127.24" y="-137.24" font-family="Times,serif" font-weight="bold" font-size="24.00" style="">result</text>
<text text-anchor="start" x="189.56" y="-138.84" font-family="Times,serif" font-weight="bold" baseline-shift="super" font-size="20.00" fill="red" style="">9</text>
</g>
<!-- 34&#45;&gt;54 -->
<g id="edge12" class="edge" data-name="34-&gt;54">

<path fill="none" stroke="black" d="M204.59,-114.11C225.44,-100.8 250.4,-84.86 272.38,-70.84" style=""/>
<polygon fill="black" stroke="black" points="274.41,-73.7 280.95,-65.36 270.64,-67.79 274.41,-73.7" style=""/>
</g>
<!-- 36&#45;&gt;34 -->
<g id="edge6" class="edge" data-name="36-&gt;34">

<path fill="none" stroke="black" d="M159.56,-222.4C159.56,-211.82 159.56,-199.99 159.56,-188.81" style=""/>
<polygon fill="black" stroke="black" points="163.06,-188.79 159.56,-178.79 156.06,-188.79 163.06,-188.79" style=""/>
</g>
<!-- 40 -->
<g id="node11" class="node" pointer-events="visible" data-name="40">

<ellipse fill="none" stroke="black" cx="731.56" cy="-257.07" rx="107.46" ry="28.07" style=""/>
<text text-anchor="start" x="665.31" y="-252.87" font-family="Times,serif" font-size="14.00" style=""> </text>
<polygon fill="#cccccc" stroke="transparent" points="670.56,-241.07 670.56,-273.07 775.56,-273.07 775.56,-241.07 670.56,-241.07" style=""/>
<text text-anchor="start" x="672.42" y="-250.47" font-family="Times,serif" font-weight="bold" font-size="24.00" style="">irrelevant</text>
<text text-anchor="start" x="777.56" y="-252.07" font-family="Times,serif" font-weight="bold" baseline-shift="super" font-size="20.00" fill="red" style="">11</text>
</g>
<!-- 50 -->
<g id="node13" class="node" pointer-events="visible" data-name="50">

<ellipse fill="none" stroke="black" cx="731.56" cy="-143.84" rx="107.46" ry="28.07" style=""/>
<text text-anchor="start" x="665.31" y="-139.64" font-family="Times,serif" font-size="14.00" style=""> </text>
<polygon fill="#cccccc" stroke="transparent" points="670.56,-127.84 670.56,-159.84 775.56,-159.84 775.56,-127.84 670.56,-127.84" style=""/>
<text text-anchor="start" x="672.42" y="-137.24" font-family="Times,serif" font-weight="bold" font-size="24.00" style="">irrelevant</text>
<text text-anchor="start" x="777.56" y="-138.84" font-family="Times,serif" font-weight="bold" baseline-shift="super" font-size="20.00" fill="red" style="">13</text>
</g>
<!-- 40&#45;&gt;50 -->
<g id="edge9" class="edge" data-name="40-&gt;50">

<path fill="none" stroke="black" d="M731.56,-228.58C731.56,-214.67 731.56,-197.59 731.56,-182.48" style=""/>
<polygon fill="black" stroke="black" points="735.06,-182.41 731.56,-172.41 728.06,-182.41 735.06,-182.41" style=""/>
</g>
<!-- 42 -->
<g id="node12" class="node" pointer-events="visible" data-name="42">

<ellipse fill="none" stroke="black" cx="731.56" cy="-370.3" rx="140.01" ry="28.07" style=""/>
<text text-anchor="start" x="642.31" y="-366.1" font-family="Times,serif" font-size="14.00" style=""> </text>
<polygon fill="#cccccc" stroke="transparent" points="647.56,-354.3 647.56,-386.3 798.56,-386.3 798.56,-354.3 647.56,-354.3" style=""/>
<text text-anchor="start" x="649.42" y="-363.7" font-family="Times,serif" font-weight="bold" font-size="24.00" style="">"log message"</text>
<text text-anchor="start" x="800.56" y="-365.3" font-family="Times,serif" font-weight="bold" baseline-shift="super" font-size="20.00" fill="red" style="">12</text>
</g>
<!-- 42&#45;&gt;40 -->
<g id="edge8" class="edge" data-name="42-&gt;40">

<path fill="none" stroke="black" d="M731.56,-341.81C731.56,-327.9 731.56,-310.82 731.56,-295.71" style=""/>
<polygon fill="black" stroke="black" points="735.06,-295.64 731.56,-285.64 728.06,-295.64 735.06,-295.64" style=""/>
</g>
</g>
</svg>